<svg width="32" height="32" viewBox="0 0 32 32" fill="none" xmlns="http://www.w3.org/2000/svg">
<rect width="32" height="32" rx="16" fill="#1A1B16"/>
<mask id="mask0" mask-type="alpha" maskUnits="userSpaceOnUse" x="0" y="0" width="32" height="32">
<rect width="32" height="32" rx="16" fill="#404239"/>
</mask>
<g mask="url(#mask0)">
<path fill-rule="evenodd" clip-rule="evenodd" d="M14.4687 10.8559L13.0993 12.8134C11.1127 12.2021 10.0429 12.5077 9.73731 13.119C9.5212 13.5512 9.27886 14.1887 11.5711 14.8C12.7996 15.1276 13.5734 15.8798 13.7105 16.6338C14.0162 18.3147 13.0993 20.869 10.807 21.5239C8.97323 22.0478 7.13943 21.9824 5 20.4542L6.68098 18.1619C7.44506 18.926 8.07323 19.1611 9.12604 19.2317C10.1789 19.3023 10.9179 18.7466 10.9179 17.9575C10.9179 17.3272 10.1697 17.1443 9.25542 16.9208C8.91946 16.8387 8.56108 16.7511 8.20914 16.6338C6.8338 16.1753 6.06972 14.6471 6.8338 12.6605C7.59788 10.674 10.5234 8.88334 14.4687 10.8559ZM26.7039 14.0482H23.4948C23.342 13.4879 22.7001 12.3978 21.3554 12.52C19.6744 12.6729 17.8383 13.9115 17.5349 16.0348C17.2293 18.1742 18.4518 19.2439 20.1328 19.2439C21.8138 19.2439 22.7307 18.3271 23.1892 17.4102H19.8272L20.2857 15.2707H26.8568C26.4882 17.8686 24.4729 21.689 19.8272 21.689C14.0202 21.689 14.4231 16.4933 15.0899 14.6595C15.7011 12.9785 17.9934 10.075 21.5082 10.075C25.4814 10.075 26.5511 12.9785 26.7039 14.0482Z" fill="white"/>
</g>
</svg>
