<svg width="28" height="28" viewBox="0 0 28 28" fill="none" xmlns="http://www.w3.org/2000/svg">
<path fill-rule="evenodd" clip-rule="evenodd" d="M14.5 2V7.87906L11.9371 5.8287L10.063 8.1713L16 12.9209L21.9371 8.1713L20.063 5.8287L17.5 7.87906V2H14.5ZM27.3934 8.55543L23.0168 19.5333H8.97764L5.42925 10.4999H2V7.49995H7.47397L11.0224 16.5333H20.9832L24.6066 7.44446L27.3934 8.55543ZM11 22C9.89543 22 9 22.8954 9 24C9 25.1046 9.89543 26 11 26C12.1046 26 13 25.1046 13 24C13 22.8954 12.1046 22 11 22ZM21 22C19.8954 22 19 22.8954 19 24C19 25.1046 19.8954 26 21 26C22.1046 26 23 25.1046 23 24C23 22.8954 22.1046 22 21 22Z" fill="#4DCC34"/>
</svg>
