<svg width="28" height="28" viewBox="0 0 28 28" fill="none" xmlns="http://www.w3.org/2000/svg">
<path fill-rule="evenodd" clip-rule="evenodd" d="M12.2708 2.69995C6.98509 2.69995 2.7002 6.98485 2.7002 12.2705C2.7002 17.5562 6.98509 21.8411 12.2708 21.8411C14.3723 21.8411 16.3156 21.1638 17.8943 20.0156L22.7393 24.8606L24.8606 22.7393L20.0156 17.8943C21.164 16.3155 21.8414 14.3721 21.8414 12.2705C21.8414 6.98485 17.5565 2.69995 12.2708 2.69995ZM5.7002 12.2705C5.7002 8.6417 8.64195 5.69995 12.2708 5.69995C15.8996 5.69995 18.8414 8.6417 18.8414 12.2705C18.8414 15.8994 15.8996 18.8411 12.2708 18.8411C8.64195 18.8411 5.7002 15.8994 5.7002 12.2705Z" fill="white"/>
</svg>
