<svg width="28" height="28" viewBox="0 0 28 28" fill="none" xmlns="http://www.w3.org/2000/svg">
<path d="M14.7812 15.375C17.7031 16.0938 18.5781 17.0469 18.5781 18.6562C18.5781 20.3281 17.4531 21.5938 14.7812 21.7969V15.375ZM13.0156 11.7656C10.5156 11.1406 9.57812 10.0938 9.57812 8.67188C9.57812 7.25 10.7656 5.95312 13.0156 5.67188V11.7656ZM14.7812 12.1875V5.67188C16.7812 5.92188 18.1875 7.0625 18.3906 9.03125H21.6406C21.5156 5.48438 18.6875 3.14062 14.7812 2.82812V0.1875H13.0156V2.82812C9.07812 3.125 6.26562 5.4375 6.26562 8.9375C6.26562 12.1094 8.40625 13.8906 12.375 14.8125L13.0156 14.9688V21.7812C10.5 21.5156 9.3125 20.1719 9.03125 18.3438H5.79688C5.90625 22.0938 9.04688 24.3281 13.0156 24.625V27.25H14.7812V24.625C18.7656 24.3438 21.8906 22.1719 21.8906 18.3438C21.8906 15.0156 19.6406 13.3281 15.5312 12.375L14.7812 12.1875Z" fill="#4DCC34"/>
</svg>
