<svg width="148" height="90" viewBox="0 0 148 90" fill="none" xmlns="http://www.w3.org/2000/svg">
<rect width="148" height="90" fill="#F2F2F2"/>
<path d="M70 46C70 43.7909 71.7909 42 74 42C76.2091 42 78 43.7909 78 46C78 48.2091 76.2091 50 74 50C71.7909 50 70 48.2091 70 46Z" fill="#DADADA"/>
<path fill-rule="evenodd" clip-rule="evenodd" d="M67 37L68.004 34.7689C68.4884 33.6924 69.5592 33 70.7398 33H77.2602C78.4408 33 79.5116 33.6924 79.996 34.7689L81 37H82C85.3137 37 88 39.6863 88 43V51C88 54.3137 85.3137 57 82 57H66C62.6863 57 60 54.3137 60 51V43C60 39.6863 62.6863 37 66 37H67ZM74 40C70.6863 40 68 42.6863 68 46C68 49.3137 70.6863 52 74 52C77.3137 52 80 49.3137 80 46C80 42.6863 77.3137 40 74 40Z" fill="#DADADA"/>
</svg>
