<svg width="366" height="48" viewBox="0 0 366 48" fill="none" xmlns="http://www.w3.org/2000/svg">
<path fill-rule="evenodd" clip-rule="evenodd" d="M342.09 0.249952C341.407 -0.0806628 340.611 -0.0834265 339.926 0.242436L326.426 6.66466C325.996 6.86916 325.634 7.19216 325.381 7.59567L316.881 21.1734C316.148 22.3437 316.503 23.8864 317.674 24.619C318.844 25.3517 320.386 24.9969 321.119 23.8266L322 22.4194V45.5C322 46.8807 323.119 48 324.5 48L332.5 48H349.5L357.5 48C358.881 48 360 46.8807 360 45.5V22.4579L360.898 23.853C361.645 25.014 363.192 25.3495 364.353 24.6023C365.514 23.855 365.85 22.3081 365.102 21.147L356.364 7.56926C356.115 7.18285 355.765 6.87246 355.351 6.67217L342.09 0.249952ZM355 14.6888L352.54 10.866L340.99 5.27305L329.232 10.8666L326.999 14.4339C327 14.4558 327 14.4779 327 14.5V43H330V26.5009V26.5C330 26.1241 330.083 25.7677 330.232 25.4478C330.358 25.1753 330.535 24.9216 330.763 24.7018C330.982 24.4906 331.239 24.3189 331.523 24.1982C331.786 24.0865 332.072 24.0185 332.371 24.0033C332.414 24.0011 332.457 24 332.5 24H349.5C349.543 24 349.586 24.0011 349.629 24.0033C349.928 24.0185 350.214 24.0865 350.477 24.1982C350.761 24.3188 351.018 24.4904 351.236 24.7015C351.465 24.9215 351.642 25.1754 351.769 25.4483C351.917 25.768 352 26.1243 352 26.5001V26.5018V43H355V14.6888ZM341 32.2995L338.067 29H343.933L341 32.2995ZM335 33.0755L337.655 36.0625L335 39.0495V33.0755ZM341 39.8255L338.178 43H343.822L341 39.8255ZM347 33.0755L344.345 36.0625L347 39.0495V33.0755ZM340 15.5C340 16.0523 340.448 16.5 341 16.5C341.552 16.5 342 16.0523 342 15.5C342 14.9477 341.552 14.5 341 14.5C340.448 14.5 340 14.9477 340 15.5ZM341 9.5C337.686 9.5 335 12.1863 335 15.5C335 18.8137 337.686 21.5 341 21.5C344.314 21.5 347 18.8137 347 15.5C347 12.1863 344.314 9.5 341 9.5ZM19.2233 39.1052C19.2233 40.3769 18.9733 41.5557 18.4732 42.6417C17.9875 43.7133 17.3088 44.6493 16.4373 45.4494C15.5658 46.2353 14.53 46.8497 13.3299 47.2927C12.144 47.7357 10.8582 47.9571 9.47235 47.9571C8.07222 47.9571 6.79352 47.7428 5.63626 47.3141C4.47901 46.8712 3.47891 46.2639 2.63597 45.4923C1.80732 44.7064 1.15726 43.7705 0.685781 42.6845C0.228594 41.5986 0 40.4054 0 39.1052L0.428613 38.6551H4.56473L4.99334 39.1052C4.99334 39.691 5.1005 40.234 5.3148 40.7341C5.52911 41.2342 5.82914 41.67 6.21489 42.0415C6.61493 42.3987 7.08641 42.6774 7.62932 42.8774C8.17223 43.0775 8.77228 43.1775 9.42949 43.1775C10.1296 43.1775 10.7725 43.0703 11.3583 42.856C11.9583 42.6417 12.4726 42.3487 12.9013 41.9772C13.3299 41.6057 13.6656 41.1699 13.9085 40.6698C14.1514 40.1554 14.2728 39.6053 14.2728 39.0194C14.2728 38.2192 14.0728 37.5119 13.6728 36.8975C13.2727 36.2688 12.6512 35.733 11.8083 35.29L4.90762 31.6464C3.43605 30.8747 2.33594 29.8602 1.6073 28.6028C0.878657 27.3311 0.514336 25.9165 0.514336 24.359C0.514336 23.1445 0.735786 22.0299 1.17869 21.0154C1.63587 19.9866 2.26451 19.1007 3.06458 18.3577C3.86466 17.6146 4.81476 17.0359 5.91486 16.6216C7.01497 16.2072 8.21509 16 9.51521 16C10.8868 16 12.144 16.2143 13.287 16.643C14.43 17.0574 15.4086 17.6504 16.223 18.422C17.0517 19.1936 17.6946 20.1152 18.1518 21.1869C18.609 22.2443 18.8376 23.4159 18.8376 24.7019L18.3875 25.1306H14.2085L13.7799 24.7019C13.7799 23.5303 13.4013 22.6086 12.6441 21.937C11.8869 21.2655 10.8439 20.9297 9.51521 20.9297C9.01517 20.9297 8.52226 21.0011 8.0365 21.144C7.55074 21.2726 7.11498 21.4869 6.72923 21.787C6.35776 22.0728 6.05773 22.4372 5.82914 22.8801C5.60055 23.3231 5.48625 23.8446 5.48625 24.4447C5.48625 24.8448 5.5434 25.2021 5.65769 25.5164C5.78628 25.8165 5.95058 26.088 6.1506 26.3309C6.35062 26.5595 6.57921 26.7667 6.83638 26.9524C7.09355 27.1239 7.35786 27.2811 7.62932 27.424L14.2085 30.8104C15.8658 31.6678 17.116 32.8109 17.9589 34.2398C18.8018 35.6687 19.2233 37.2905 19.2233 39.1052ZM28.6314 47.5713H24.5167L24.0666 47.1427V16.7073L24.5167 16.2786H29.0385L29.4243 16.5358L37.7608 36.1045V16.7073L38.2109 16.2786H42.2827L42.7756 16.7073V47.1427L42.2827 47.5713H37.8037L37.4179 47.3141L29.1243 28.0884V47.1427L28.6314 47.5713ZM66.2207 16.2786H49.3762L48.9262 16.7073V47.1427L49.3762 47.5713H66.2207L66.7136 47.1427V43.0489L66.2207 42.6202H53.9838V34.4113H65.2992L65.7493 33.9612V29.8888L65.2992 29.4387H53.9838V21.2297H66.2207L66.7136 20.8011V16.7073L66.2207 16.2786ZM74.3644 47.2284L73.9786 47.5713H69.7568L69.371 46.9926L77.4075 16.5787L77.8362 16.2786H83.7296L84.1582 16.5787L92.1947 46.9926L91.7875 47.5713H87.5871L87.1799 47.2284L85.1226 39.2766H76.4432L74.3644 47.2284ZM77.7076 34.3255H83.8582L80.7722 22.3657L77.7076 34.3255ZM110.518 47.5713H115.254L115.661 46.864L105.696 30.4032L115.126 16.9859L114.74 16.2786H109.939L109.554 16.4501L101.217 28.217V16.7073L100.767 16.2786H96.6094L96.1594 16.7073V47.1427L96.6094 47.5713H100.767L101.217 47.1427V37.1333L102.717 34.8399L110.175 47.357L110.518 47.5713ZM120.055 16.2786H136.899L137.392 16.7073V20.8011L136.899 21.2297H124.662V29.4387H135.978L136.428 29.8888V33.9612L135.978 34.4113H124.662V42.6202H136.899L137.392 43.0489V47.1427L136.899 47.5713H120.055L119.605 47.1427V16.7073L120.055 16.2786ZM142.685 47.5713H146.843L147.293 47.1427V35.14H150.572L156.251 47.3141L156.637 47.5713H161.33L161.737 46.9069L155.844 34.497C156.758 34.0969 157.53 33.5825 158.158 32.9538C158.787 32.3251 159.294 31.6392 159.68 30.8962C160.08 30.1532 160.366 29.3958 160.537 28.6242C160.723 27.8384 160.816 27.1025 160.816 26.4166V24.9591C160.816 24.4305 160.759 23.8518 160.644 23.223C160.53 22.58 160.337 21.937 160.066 21.294C159.794 20.651 159.43 20.0295 158.973 19.4293C158.53 18.8149 157.98 18.2791 157.322 17.8218C156.665 17.3503 155.879 16.9788 154.965 16.7073C154.065 16.4215 153.029 16.2786 151.858 16.2786H142.685L142.235 16.7073V47.1427L142.685 47.5713ZM147.293 30.1889V21.2726H151.772C152.143 21.2726 152.558 21.3226 153.015 21.4226C153.472 21.5084 153.901 21.687 154.301 21.9585C154.701 22.23 155.037 22.6158 155.308 23.1159C155.579 23.616 155.715 24.2733 155.715 25.0877V26.3737C155.715 27.1453 155.594 27.7812 155.351 28.2813C155.122 28.7814 154.822 29.1744 154.451 29.4601C154.079 29.7316 153.665 29.9245 153.208 30.0388C152.751 30.1389 152.301 30.1889 151.858 30.1889H147.293ZM184.068 39.1052C184.068 40.3769 183.818 41.5557 183.318 42.6417C182.832 43.7276 182.153 44.6707 181.282 45.4709C180.41 46.2568 179.375 46.8783 178.175 47.3356C176.989 47.7785 175.703 48 174.317 48C172.917 48 171.638 47.7857 170.481 47.357C169.324 46.914 168.324 46.2996 167.481 45.5137C166.652 44.7278 166.002 43.7919 165.53 42.706C165.073 41.6057 164.845 40.4054 164.845 39.1052L165.273 38.6551H169.409L169.838 39.1052C169.838 39.691 169.945 40.2411 170.159 40.7555C170.374 41.2556 170.674 41.6915 171.06 42.063C171.46 42.4202 171.931 42.706 172.474 42.9203C173.017 43.1203 173.617 43.2204 174.274 43.2204C174.974 43.2204 175.617 43.1132 176.203 42.8989C176.803 42.6845 177.317 42.3916 177.746 42.0201C178.175 41.6343 178.51 41.1842 178.753 40.6698C178.996 40.1554 179.117 39.6053 179.117 39.0194C179.117 38.2192 178.917 37.5119 178.517 36.8975C178.117 36.2688 177.496 35.733 176.653 35.29L169.752 31.6464C168.281 30.8747 167.181 29.8602 166.452 28.6028C165.723 27.3311 165.359 25.9165 165.359 24.359C165.359 23.1445 165.58 22.0299 166.023 21.0154C166.481 19.9866 167.109 19.1007 167.909 18.3577C168.709 17.6146 169.659 17.0359 170.76 16.6216C171.86 16.2072 173.06 16 174.36 16C175.731 16 176.989 16.2143 178.132 16.643C179.275 17.0574 180.253 17.6504 181.068 18.422C181.896 19.1936 182.539 20.1152 182.996 21.1869C183.454 22.2443 183.682 23.4159 183.682 24.7019L183.232 25.1306H179.053L178.625 24.7019C178.625 23.5303 178.246 22.6158 177.489 21.9585C176.732 21.3012 175.689 20.9725 174.36 20.9725C173.86 20.9725 173.367 21.044 172.881 21.1869C172.395 21.3155 171.96 21.5227 171.574 21.8084C171.202 22.0799 170.902 22.4372 170.674 22.8801C170.445 23.3231 170.331 23.8446 170.331 24.4447C170.331 24.8448 170.388 25.2021 170.502 25.5164C170.631 25.8165 170.795 26.088 170.995 26.3309C171.195 26.5595 171.424 26.7667 171.681 26.9524C171.938 27.1239 172.203 27.2811 172.474 27.424L179.053 30.8104C180.71 31.6678 181.961 32.8109 182.804 34.2398C183.646 35.6687 184.068 37.2905 184.068 39.1052ZM194.933 41.6986L194.483 41.2485H189.061L188.611 41.6986V47.1427L189.061 47.5713H194.483L194.933 47.1427V41.6986ZM217.693 33.9612L217.243 34.4113H205.927V47.1427L205.477 47.5713H201.32L200.87 47.1427V16.7073L201.32 16.2786H218.207L218.657 16.7073V20.8439L218.207 21.2726H205.927V29.4387H217.243L217.693 29.8888V33.9612ZM223.736 47.5713L224.122 47.2284L226.201 39.2766H234.88L236.937 47.2284L237.345 47.5713H241.545L241.952 46.9926L233.916 16.5787L233.487 16.2786H227.594L227.165 16.5787L219.129 46.9926L219.514 47.5713H223.736ZM233.616 34.3255H227.465L230.53 22.3657L233.616 34.3255ZM250.524 47.5713H246.367L245.917 47.1427V16.7073L246.367 16.2786H255.539C256.711 16.2786 257.747 16.4215 258.647 16.7073C259.561 16.9788 260.347 17.3503 261.004 17.8218C261.661 18.2791 262.211 18.8149 262.654 19.4293C263.111 20.0295 263.476 20.651 263.747 21.294C264.019 21.937 264.211 22.58 264.326 23.223C264.44 23.8518 264.497 24.4305 264.497 24.9591V26.4166C264.497 27.1025 264.404 27.8384 264.219 28.6242C264.047 29.3958 263.761 30.1532 263.361 30.8962C262.976 31.6392 262.468 32.3251 261.84 32.9538C261.211 33.5825 260.44 34.0969 259.525 34.497L265.419 46.9069L265.012 47.5713H260.318L259.932 47.3141L254.253 35.14H250.974V47.1427L250.524 47.5713ZM250.974 21.2726V30.1889H255.539C255.982 30.1889 256.432 30.1389 256.889 30.0388C257.347 29.9245 257.761 29.7316 258.132 29.4601C258.504 29.1744 258.804 28.7814 259.032 28.2813C259.275 27.7812 259.397 27.1453 259.397 26.3737V25.0877C259.397 24.2733 259.261 23.616 258.99 23.1159C258.718 22.6158 258.382 22.23 257.982 21.9585C257.582 21.687 257.154 21.5084 256.696 21.4226C256.239 21.3226 255.825 21.2726 255.453 21.2726H250.974ZM283.613 38.2693L287.964 27.2954V47.1427L288.435 47.5713H292.571L293 47.1427V16.7073L292.571 16.2786H287.878L287.471 16.5358L281.642 30.8104L275.705 16.5358L275.32 16.2786H270.712L270.262 16.7073V47.1427L270.712 47.5713H274.827L275.32 47.1427V27.2525L279.67 38.2693L280.056 38.5265H283.228L283.613 38.2693Z" fill="#4DCC34"/>
</svg>
