<svg width="32" height="32" viewBox="0 0 32 32" fill="none" xmlns="http://www.w3.org/2000/svg">
<path fill-rule="evenodd" clip-rule="evenodd" d="M2 16C2 23.732 8.26801 30 16 30C23.732 30 30 23.732 30 16C30 8.26801 23.732 2 16 2C8.26801 2 2 8.26801 2 16ZM16 0C7.16344 0 0 7.16344 0 16C0 24.8366 7.16344 32 16 32C24.8366 32 32 24.8366 32 16C32 7.16344 24.8366 0 16 0Z" fill="#F2F2F2"/>
<path fill-rule="evenodd" clip-rule="evenodd" d="M16 12C16.5523 12 17 12.4477 17 13V16H19C19.5523 16 20 16.4477 20 17C20 17.5523 19.5523 18 19 18H16C15.4477 18 15 17.5523 15 17V13C15 12.4477 15.4477 12 16 12Z" fill="#A9A9A9"/>
<path fill-rule="evenodd" clip-rule="evenodd" d="M26.7071 19.2929C27.0976 19.6834 27.0976 20.3166 26.7071 20.7071L22.7071 24.7071C22.3166 25.0976 21.6834 25.0976 21.2929 24.7071L19.2929 22.7071C18.9024 22.3166 18.9024 21.6834 19.2929 21.2929C19.6834 20.9024 20.3166 20.9024 20.7071 21.2929L22 22.5858L25.2929 19.2929C25.6834 18.9024 26.3166 18.9024 26.7071 19.2929Z" fill="#A9A9A9"/>
<path fill-rule="evenodd" clip-rule="evenodd" d="M16 9C12.134 9 9 12.134 9 16C9 19.866 12.134 23 16 23C16.5523 23 17 23.4477 17 24C17 24.5523 16.5523 25 16 25C11.0294 25 7 20.9706 7 16C7 11.0294 11.0294 7 16 7C20.9706 7 25 11.0294 25 16C25 16.5523 24.5523 17 24 17C23.4477 17 23 16.5523 23 16C23 12.134 19.866 9 16 9Z" fill="#A9A9A9"/>
</svg>
