<svg width="32" height="32" viewBox="0 0 32 32" fill="none" xmlns="http://www.w3.org/2000/svg">
<rect width="32" height="32" rx="16" fill="#D8D8D8"/>
<path fill-rule="evenodd" clip-rule="evenodd" d="M12.2379 9.0074C11.5444 9.10031 10.7218 9.3547 9.99784 9.8778C9.00253 10.597 8.25 11.7871 8.25 13.5714C8.25 15.3794 9.07598 16.564 10.0797 17.2704C11.044 17.9492 12.1541 18.1786 12.8182 18.1786H15.5594C16.4085 18.1786 17.3008 18.3904 17.957 18.839C18.4116 19.1497 18.7685 19.5814 18.9282 20.1896H12.8604C11.3425 20.1896 10.1821 20.8745 9.41455 21.74C8.66772 22.582 8.25 23.6434 8.25 24.5C8.25 24.9142 8.58579 25.25 9 25.25H15.5594C16.3397 25.25 17.5316 24.9614 18.5444 24.3168C19.4494 23.7406 20.284 22.8266 20.4773 21.5193C22.2609 21.0248 23.75 19.4654 23.75 17C23.75 15.504 23.1813 14.4132 22.2562 13.7209C21.3659 13.0547 20.2319 12.8214 19.1818 12.8214H16.6364C15.8229 12.8214 15.0342 12.5729 14.4664 12.1395C13.9405 11.7381 13.6012 11.1811 13.5705 10.4643H18.5455C19.8518 10.4643 20.8439 9.7719 21.4834 8.9802C22.106 8.20952 22.4773 7.24469 22.4773 6.5C22.4773 6.08579 22.1415 5.75 21.7273 5.75H16.6364C15.5199 5.75 14.3801 6.12518 13.5103 6.90625C12.9148 7.441 12.4666 8.14784 12.2379 9.0074ZM13.836 8.96429H18.5455C19.2755 8.96429 19.8742 8.58525 20.3166 8.03765C20.5262 7.77812 20.6821 7.50323 20.7897 7.25H16.6364C15.8437 7.25 15.0744 7.51768 14.5125 8.02232C14.2389 8.26798 14.0034 8.57935 13.836 8.96429ZM18.8973 21.6896H12.8604C11.8328 21.6896 11.063 22.142 10.5368 22.7353C10.245 23.0643 10.0406 23.4224 9.91341 23.75H15.5594C16.0519 23.75 16.9649 23.5441 17.7389 23.0514C18.2771 22.7088 18.6998 22.2629 18.8973 21.6896ZM20.416 19.9613C21.4498 19.5429 22.25 18.5511 22.25 17C22.25 15.9245 21.8642 15.3011 21.3575 14.9219C20.816 14.5167 20.0409 14.3214 19.1818 14.3214H16.6364C15.5407 14.3214 14.4204 13.9914 13.5563 13.3319C12.7233 12.6961 12.1339 11.7531 12.0733 10.5613C11.6761 10.6552 11.2499 10.8237 10.8763 11.0936C10.2702 11.5316 9.75 12.27 9.75 13.5714C9.75 14.8492 10.3028 15.5932 10.9431 16.0438C11.6227 16.5222 12.4217 16.6786 12.8182 16.6786H15.5594C16.6195 16.6786 17.832 16.9365 18.8035 17.6006C19.5823 18.133 20.1844 18.9152 20.416 19.9613Z" fill="black"/>
</svg>
