<svg width="32" height="32" viewBox="0 0 32 32" fill="none" xmlns="http://www.w3.org/2000/svg">
<rect width="32" height="32" rx="16" fill="black"/>
<path d="M23 15.6579V21.8999L22.9717 21.9279C20.8799 23.9946 18.4912 25 15.8622 25C13.5442 25 11.2544 24.0923 9.60071 22.5283C8.80919 21.7463 8.15901 20.7688 7.69258 19.6517C7.22615 18.5345 7 17.3057 7 15.993C7 14.6804 7.24028 13.4655 7.72085 12.3483C8.22968 11.2033 8.87986 10.2537 9.74205 9.47168C11.523 7.80993 13.6007 7 15.9329 7C17.841 7 20.583 7.50271 22.8728 9.90458L22.9435 9.9744L21.4735 11.287L21.4028 11.2172C20.5548 10.4073 19.6643 9.79286 18.8728 9.49961C18.0813 9.23429 16.9929 9.06672 15.9611 9.06672C14.3216 9.06672 12.9505 9.61133 11.5795 10.7843C10.2085 11.9573 9.4311 13.8565 9.4311 16.0209C9.4311 18.2552 10.0813 19.9728 11.311 21.09C12.6113 22.2351 14.3216 22.9472 15.9187 22.9472C17.6996 22.9472 19.2403 22.3328 20.5265 21.1179V17.6687H16.2014V15.6439H23V15.6579Z" fill="white"/>
</svg>
