<svg width="158" height="28" viewBox="0 0 158 28" fill="none" xmlns="http://www.w3.org/2000/svg">
<path fill-rule="evenodd" clip-rule="evenodd" d="M103.167 4.55217H112.207V7.05217H105.667V9.39404H109.981V11.894H105.667V22.0302H103.167V4.55217ZM113.592 16.4045C113.592 14.5402 115.103 13.0288 116.968 13.0288C118.832 13.0288 120.343 14.5402 120.343 16.4045C120.343 18.2689 118.832 19.7802 116.968 19.7802C115.103 19.7802 113.592 18.2689 113.592 16.4045ZM116.968 10.5288C113.722 10.5288 111.092 13.1595 111.092 16.4045C111.092 19.6496 113.722 22.2802 116.968 22.2802C118.773 22.2802 120.388 21.4659 121.466 20.1846L121.763 22.5396L124.243 22.2269L122.574 8.98672L120.094 9.29941L120.387 11.6258C119.424 10.9353 118.243 10.5288 116.968 10.5288ZM126.238 9.95834L127.907 22.1985L130.384 21.8608L129.495 15.3383C129.939 14.4758 130.497 13.8826 131.157 13.4523C131.906 12.9644 132.852 12.6442 134.05 12.4445L133.639 9.97853C132.24 10.2116 130.929 10.6171 129.793 11.3575C129.525 11.5318 129.271 11.7223 129.03 11.93L128.715 9.62056L126.238 9.95834ZM138.293 22.1985L136.624 9.95834L139.101 9.62056L139.42 11.9605C139.493 11.8948 139.566 11.8308 139.641 11.7686C140.515 11.0354 141.666 10.3947 142.864 10.3947C144.05 10.3947 144.998 10.911 145.695 11.7228C145.875 11.9321 146.037 12.1596 146.184 12.4011C146.352 12.201 146.528 12.0099 146.712 11.8309C147.489 11.0733 148.549 10.3943 149.788 10.3943C150.974 10.3943 151.922 10.9105 152.619 11.7224C153.277 12.489 153.701 13.4998 153.999 14.5491C154.592 16.6428 154.806 19.3769 154.997 21.9373L152.504 22.1232C152.308 19.4905 152.103 17.0317 151.593 15.2306C151.339 14.3326 151.04 13.7206 150.722 13.3512C150.444 13.0271 150.163 12.8943 149.788 12.8943C149.477 12.8943 149.011 13.0807 148.456 13.6214C148.001 14.0648 147.582 14.6573 147.262 15.2836C147.716 17.2597 147.904 19.667 148.073 21.9377L145.58 22.1236C145.384 19.4909 145.18 17.0321 144.669 15.231C144.415 14.333 144.116 13.721 143.799 13.3516C143.52 13.0275 143.24 12.8947 142.864 12.8947C142.512 12.8947 141.921 13.1195 141.247 13.6845C140.688 14.153 140.198 14.7529 139.881 15.3421L140.77 21.8608L138.293 22.1985Z" fill="#088540"/>
<path fill-rule="evenodd" clip-rule="evenodd" d="M52.6693 2.15693L55.2039 22.1866L57.6841 21.8727L57.11 17.3352C57.1754 17.2581 57.3174 17.1388 57.6041 17.0242C57.9702 16.8777 58.4568 16.789 58.979 16.789C59.99 16.789 60.7305 17.259 61.3149 18.1644C61.9328 19.1219 62.3322 20.5243 62.4954 22.1551L64.983 21.9062C64.7998 20.075 64.3337 18.2316 63.4154 16.8088C62.6804 15.6698 61.6385 14.7873 60.2726 14.4443C61.5474 13.4124 62.9858 12.2403 64.1067 11.3063L62.5062 9.38574C61.2158 10.4611 59.4911 11.8625 58.0854 12.9979C57.5676 13.416 57.0939 13.7975 56.7021 14.1125L55.1495 1.84308L52.6693 2.15693ZM49.147 22.1985L48.8569 20.0712C47.7802 21.4177 46.1235 22.2802 44.2654 22.2802C41.0203 22.2802 38.3896 19.6496 38.3896 16.4045C38.3896 13.1595 41.0203 10.5288 44.2654 10.5288C45.551 10.5288 46.7401 10.9417 47.7075 11.6421L47.4779 9.95834L49.955 9.62056L51.6241 21.8608L49.147 22.1985ZM27.7729 16.4045C27.7729 14.4659 29.3445 12.8943 31.2831 12.8943C32.1733 12.8943 32.9869 13.2255 33.6066 13.773L27.7765 16.5639C27.7741 16.511 27.7729 16.4579 27.7729 16.4045ZM36.064 15.3682L28.7732 18.8584C29.4105 19.5102 30.2996 19.9147 31.2831 19.9147C32.6454 19.9147 33.8287 19.1389 34.4113 17.9993L36.6373 19.1372C35.6441 21.0801 33.6206 22.4147 31.2831 22.4147C27.9638 22.4147 25.2729 19.7238 25.2729 16.4045C25.2729 13.0851 27.9638 10.3943 31.2831 10.3943C33.6206 10.3943 35.6441 11.7288 36.6373 13.6718L36.064 15.3682ZM72.8269 12.8943C70.8883 12.8943 69.3167 14.4659 69.3167 16.4045C69.3167 16.4579 69.3179 16.511 69.3202 16.5639L75.1503 13.773C74.5307 13.2255 73.717 12.8943 72.8269 12.8943ZM70.3169 18.8584L77.6078 15.3682L78.1811 13.6718C77.1879 11.7288 75.1643 10.3943 72.8269 10.3943C69.5076 10.3943 66.8167 13.0851 66.8167 16.4045C66.8167 19.7238 69.5076 22.4147 72.8269 22.4147C75.1643 22.4147 77.1879 21.0801 78.1811 19.1372L75.9551 17.9993C75.3725 19.1389 74.1892 19.9147 72.8269 19.9147C71.8433 19.9147 70.9542 19.5102 70.3169 18.8584ZM44.2654 13.0288C42.401 13.0288 40.8896 14.5402 40.8896 16.4045C40.8896 18.2689 42.401 19.7802 44.2654 19.7802C46.1297 19.7802 47.6411 18.2689 47.6411 16.4045C47.6411 14.5402 46.1297 13.0288 44.2654 13.0288ZM82.0358 22.1985L80.3667 9.95834L82.8438 9.62056L83.1587 11.93C83.3997 11.7223 83.654 11.5318 83.9215 11.3575C85.0581 10.6171 86.3692 10.2116 87.7675 9.97853L88.1786 12.4445C86.9804 12.6442 86.035 12.9644 85.2861 13.4523C84.6255 13.8826 84.0675 14.4758 83.6235 15.3383L84.5129 21.8608L82.0358 22.1985ZM92.6047 9.83429C94.3354 9.1804 95.9777 9.69691 97.0335 10.2392L95.8913 12.463C95.1309 12.0724 94.2739 11.8761 93.4883 12.1729C93.1858 12.2872 92.9064 12.4868 92.766 12.6802C92.704 12.7656 92.6857 12.8261 92.6805 12.8631C92.6764 12.8926 92.6725 12.9582 92.7261 13.0796C92.757 13.1495 92.8979 13.3441 93.4094 13.5907C93.8976 13.826 94.5445 14.0241 95.3036 14.2152C96.4573 14.5057 97.4105 14.948 98.0925 15.5849C98.8066 16.2517 99.1763 17.0924 99.1763 18.0078C99.1763 18.8308 98.8968 19.8277 98.161 20.6823C97.4105 21.554 96.2613 22.1905 94.6795 22.4064C92.5291 22.6998 90.4081 21.6642 89.2317 19.85L91.3293 18.4899C92.0064 19.5341 93.2002 20.0851 94.3414 19.9293C95.4138 19.783 95.9726 19.3924 96.2665 19.0511C96.5751 18.6927 96.6763 18.2906 96.6763 18.0078C96.6763 17.8173 96.6181 17.6286 96.3863 17.4122C96.1225 17.1658 95.6117 16.8708 94.6932 16.6396C93.9018 16.4403 93.0509 16.1931 92.3239 15.8427C91.6201 15.5035 90.8284 14.9717 90.4389 14.0889C89.9528 12.9874 90.1984 11.9617 90.7428 11.2116C91.2432 10.5223 91.978 10.0711 92.6047 9.83429ZM11.9926 9.95834L13.6617 22.1985L16.1388 21.8608L15.2499 15.3421C15.5669 14.7529 16.0565 14.153 16.6154 13.6845C17.2895 13.1195 17.8812 12.8947 18.2324 12.8947C18.6083 12.8947 18.8889 13.0275 19.1673 13.3516C19.4845 13.721 19.7835 14.333 20.038 15.231C20.5482 17.0321 20.7526 19.4909 20.9489 22.1236L23.442 21.9377C23.2511 19.3773 23.0365 16.6432 22.4433 14.5496C22.146 13.5002 21.7222 12.4894 21.0639 11.7228C20.3666 10.911 19.4191 10.3947 18.2324 10.3947C17.0348 10.3947 15.8841 11.0354 15.0094 11.7686C14.9351 11.8308 14.8616 11.8948 14.7888 11.9605L14.4697 9.62056L11.9926 9.95834ZM8.75298 10.2391C7.67059 9.68322 5.77002 9.184 4.05821 9.83076C3.38216 10.0862 2.68381 10.5781 2.25688 11.3218C1.8008 12.1162 1.71914 13.0934 2.15842 14.0889C2.54796 14.9717 3.33966 15.5035 4.04338 15.8427C4.77037 16.1931 5.6213 16.4403 6.41271 16.6396C7.33123 16.8708 7.84198 17.1658 8.10583 17.4122C8.33766 17.6286 8.39585 17.8173 8.39585 18.0078C8.39585 18.2906 8.29459 18.6927 7.98599 19.0511C7.69216 19.3924 7.13334 19.783 6.06092 19.9293C4.91971 20.0851 3.72591 19.5341 3.04881 18.4899L0.951202 19.85C2.12757 21.6642 4.24861 22.6998 6.39897 22.4064C7.98083 22.1905 9.12996 21.554 9.88052 20.6823C10.6163 19.8277 10.8959 18.8308 10.8959 18.0078C10.8959 17.0923 10.5262 16.2517 9.81205 15.5849C9.12998 14.948 8.17677 14.5057 7.02316 14.2152C6.26399 14.0241 5.61716 13.826 5.12894 13.5907C4.61745 13.3441 4.47649 13.1495 4.44564 13.0796C4.3751 12.9198 4.36597 12.813 4.36898 12.7505C4.37201 12.6878 4.3892 12.6288 4.425 12.5665C4.50589 12.4256 4.68874 12.265 4.9418 12.1694C5.7463 11.8654 6.87704 12.0861 7.6108 12.463L8.75298 10.2391Z" fill="#3C84ED"/>
</svg>
