<svg width="156" height="28" viewBox="0 0 156 28" fill="none" xmlns="http://www.w3.org/2000/svg">
<rect width="156" height="28" fill="black"/>
<path fill-rule="evenodd" clip-rule="evenodd" d="M55.2036 22.1868L52.6689 2.15712L55.1492 1.84326L56.7018 14.1127C57.0936 13.7977 57.5674 13.4161 58.0853 12.9979C59.491 11.8625 61.2157 10.4611 62.5061 9.38574L64.1066 11.3063C62.9857 12.2404 61.5472 13.4124 60.2724 14.4444C61.6383 14.7873 62.6802 15.6698 63.4152 16.8088C64.3335 18.2316 64.7996 20.0751 64.9828 21.9062L62.4952 22.1552C62.332 20.5243 61.9327 19.122 61.3147 18.1645C60.7304 17.259 59.9898 16.7891 58.9788 16.7891C58.4566 16.7891 57.97 16.8778 57.6039 17.0242C57.317 17.139 57.1749 17.2583 57.1096 17.3355L57.6838 21.8729L55.2036 22.1868ZM112.207 2.55225H103.167V22.0303H105.667V11.894H109.981V9.39404H105.667V5.05225H112.207V2.55225ZM116.968 13.0288C115.103 13.0288 113.592 14.5402 113.592 16.4045C113.592 18.2689 115.103 19.7802 116.968 19.7802C118.832 19.7802 120.343 18.2689 120.343 16.4045C120.343 14.5402 118.832 13.0288 116.968 13.0288ZM111.092 16.4045C111.092 13.1595 113.722 10.5288 116.968 10.5288C118.243 10.5288 119.424 10.9353 120.387 11.6258L120.094 9.2995L122.574 8.98682L124.243 22.227L121.763 22.5397L121.466 20.1847C120.388 21.466 118.773 22.2802 116.968 22.2802C113.722 22.2802 111.092 19.6496 111.092 16.4045ZM69.3169 16.4043C69.3169 14.4656 70.8885 12.894 72.8271 12.894C73.7172 12.894 74.5309 13.2252 75.1505 13.7727L69.3204 16.5636C69.3181 16.5108 69.3169 16.4577 69.3169 16.4043ZM77.608 15.368L70.3172 18.8582C70.9545 19.51 71.8435 19.9145 72.8271 19.9145C74.1894 19.9145 75.3727 19.1387 75.9553 17.999L78.1813 19.137C77.1881 21.0799 75.1645 22.4145 72.8271 22.4145C69.5078 22.4145 66.8169 19.7236 66.8169 16.4043C66.8169 13.0849 69.5078 10.394 72.8271 10.394C75.1645 10.394 77.1881 11.7286 78.1813 13.6716L77.608 15.368ZM40.8896 16.4045C40.8896 14.5402 42.401 13.0288 44.2654 13.0288C46.1297 13.0288 47.6411 14.5402 47.6411 16.4045C47.6411 18.2689 46.1297 19.7802 44.2654 19.7802C42.401 19.7802 40.8896 18.2689 40.8896 16.4045ZM44.2654 10.5288C41.0203 10.5288 38.3896 13.1595 38.3896 16.4045C38.3896 19.6496 41.0203 22.2802 44.2654 22.2802C46.1233 22.2802 47.7799 21.4179 48.8566 20.0716L49.1467 22.1986L51.6237 21.8608L49.9546 9.62061L47.4775 9.95839L47.7071 11.6418C46.7398 10.9416 45.5508 10.5288 44.2654 10.5288ZM31.2832 12.894C29.3445 12.894 27.7729 14.4656 27.7729 16.4043C27.7729 16.4577 27.7741 16.5108 27.7765 16.5636L33.6066 13.7727C32.987 13.2252 32.1733 12.894 31.2832 12.894ZM28.7732 18.8582L36.0641 15.368L36.6374 13.6716C35.6441 11.7286 33.6206 10.394 31.2832 10.394C27.9638 10.394 25.2729 13.0849 25.2729 16.4043C25.2729 19.7236 27.9638 22.4145 31.2832 22.4145C33.6206 22.4145 35.6441 21.0799 36.6374 19.137L34.4113 17.999C33.8288 19.1387 32.6455 19.9145 31.2832 19.9145C30.2996 19.9145 29.4105 19.51 28.7732 18.8582ZM126.238 9.95839L127.907 22.1986L130.384 21.8608L129.495 15.3386C129.939 14.476 130.497 13.8826 131.157 13.4523C131.906 12.9644 132.852 12.6442 134.05 12.4445L133.639 9.97852C132.24 10.2116 130.929 10.6171 129.793 11.3575C129.525 11.5318 129.271 11.7224 129.03 11.9301L128.715 9.62061L126.238 9.95839ZM138.293 22.1986L136.624 9.95839L139.101 9.62061L139.42 11.9605C139.493 11.8948 139.566 11.8308 139.641 11.7684C140.515 11.0352 141.666 10.3945 142.864 10.3945C144.05 10.3945 144.998 10.9108 145.695 11.7227C145.875 11.932 146.037 12.1595 146.184 12.4011C146.352 12.2009 146.528 12.0097 146.712 11.8306C147.489 11.0731 148.549 10.394 149.788 10.394C150.974 10.394 151.922 10.9103 152.619 11.7222C153.278 12.4887 153.701 13.4996 153.999 14.5489C154.592 16.6426 154.806 19.3767 154.997 21.937L152.504 22.1229C152.308 19.4903 152.104 17.0314 151.593 15.2304C151.339 14.3323 151.04 13.7204 150.723 13.351C150.444 13.0269 150.164 12.894 149.788 12.894C149.477 12.894 149.011 13.0805 148.456 13.6212C148.001 14.0647 147.582 14.6573 147.262 15.2838C147.716 17.2598 147.904 19.667 148.073 21.9375L145.58 22.1234C145.384 19.4908 145.179 17.0319 144.669 15.2309C144.415 14.3328 144.116 13.7209 143.798 13.3515C143.52 13.0274 143.239 12.8945 142.864 12.8945C142.512 12.8945 141.921 13.1194 141.247 13.6844C140.688 14.153 140.198 14.753 139.881 15.3423L140.77 21.8608L138.293 22.1986ZM82.0358 22.1986L80.3667 9.95839L82.8438 9.62061L83.1587 11.9297C83.3995 11.7222 83.6538 11.5317 83.9212 11.3575C85.0579 10.6171 86.3689 10.2116 87.7673 9.97852L88.1783 12.4445C86.9802 12.6442 86.0347 12.9644 85.2858 13.4523C84.6254 13.8825 84.0674 14.4756 83.6234 15.3378L84.5129 21.8608L82.0358 22.1986ZM92.6044 9.83448C94.3351 9.18058 95.9775 9.69709 97.0332 10.2393L95.891 12.4632C95.1306 12.0726 94.2736 11.8763 93.488 12.1731C93.1856 12.2874 92.9062 12.487 92.7658 12.6804C92.7038 12.7658 92.6854 12.8263 92.6803 12.8633C92.6762 12.8928 92.6723 12.9583 92.7259 13.0798C92.7567 13.1497 92.8977 13.3443 93.4092 13.5909C93.8974 13.8262 94.5442 14.0243 95.3034 14.2154C96.457 14.5059 97.4102 14.9482 98.0923 15.5851C98.8064 16.2519 99.1761 17.0925 99.1761 18.008C99.1761 18.831 98.8965 19.8279 98.1608 20.6825C97.4102 21.5542 96.2611 22.1907 94.6792 22.4066C92.5289 22.7 90.4078 21.6644 89.2314 19.8502L91.3291 18.4901C92.0062 19.5343 93.2 20.0853 94.3412 19.9295C95.4136 19.7832 95.9724 19.3925 96.2662 19.0513C96.5748 18.6929 96.6761 18.2908 96.6761 18.008C96.6761 17.8175 96.6179 17.6288 96.3861 17.4123C96.1222 17.166 95.6115 16.871 94.6929 16.6397C93.9015 16.4405 93.0506 16.1933 92.3236 15.8429C91.6199 15.5036 90.8282 14.9719 90.4387 14.0891C89.9526 12.9876 90.1981 11.9619 90.7426 11.2118C91.243 10.5225 91.9778 10.0712 92.6044 9.83448ZM13.6613 22.1986L11.9922 9.95839L14.4693 9.62061L14.7883 11.9605C14.8612 11.8948 14.9349 11.8308 15.0092 11.7684C15.884 11.0352 17.0346 10.3945 18.2322 10.3945C19.4189 10.3945 20.3664 10.9108 21.0637 11.7227C21.722 12.4892 22.1458 13.5001 22.4431 14.5494C23.0363 16.6431 23.2509 19.3772 23.4418 21.9375L20.9487 22.1234C20.7524 19.4908 20.548 17.0319 20.0378 15.2309C19.7833 14.3328 19.4843 13.7209 19.1671 13.3515C18.8888 13.0274 18.6081 12.8945 18.2322 12.8945C17.881 12.8945 17.2893 13.1194 16.6152 13.6844C16.0562 14.153 15.5665 14.753 15.2495 15.3424L16.1384 21.8608L13.6613 22.1986ZM8.75295 10.2394C7.67056 9.68347 5.76999 9.18424 4.05818 9.831C3.38213 10.0864 2.68378 10.5784 2.25685 11.322C1.80077 12.1165 1.71911 13.0936 2.15839 14.0891C2.54793 14.9719 3.33963 15.5037 4.04335 15.8429C4.77034 16.1934 5.62127 16.4405 6.41268 16.6398C7.3312 16.8711 7.84195 17.166 8.1058 17.4124C8.33763 17.6289 8.39582 17.8176 8.39582 18.008C8.39582 18.2909 8.29456 18.6929 7.98596 19.0513C7.69213 19.3926 7.13331 19.7832 6.06089 19.9296C4.91968 20.0853 3.72588 19.5343 3.04878 18.4901L0.951172 19.8503C2.12754 21.6644 4.24858 22.7001 6.39894 22.4066C7.9808 22.1907 9.12993 21.5542 9.88049 20.6825C10.6163 19.8279 10.8958 18.8311 10.8958 18.008C10.8958 17.0926 10.5261 16.252 9.81202 15.5852C9.12995 14.9483 8.17674 14.506 7.02313 14.2155C6.26396 14.0243 5.61713 13.8263 5.12891 13.5909C4.61742 13.3444 4.47646 13.1498 4.44561 13.0799C4.37507 12.92 4.36594 12.8132 4.36895 12.7507C4.37198 12.688 4.38917 12.6291 4.42497 12.5667C4.50586 12.4258 4.68871 12.2653 4.94177 12.1696C5.74627 11.8657 6.87701 12.0864 7.61077 12.4632L8.75295 10.2394Z" fill="white"/>
</svg>
