<svg width="20" height="20" viewBox="0 0 20 20" fill="none" xmlns="http://www.w3.org/2000/svg">
<path fill-rule="evenodd" clip-rule="evenodd" d="M8.76471 2C5.02866 2 2 5.02866 2 8.76471C2 12.5008 5.02866 15.5294 8.76471 15.5294C10.272 15.5294 11.6642 15.0364 12.7887 14.2029L16.2929 17.7071C16.6835 18.0976 17.3166 18.0976 17.7071 17.7071C18.0977 17.3166 18.0977 16.6834 17.7071 16.2929L14.2029 12.7887C15.0364 11.6641 15.5294 10.272 15.5294 8.76471C15.5294 5.02866 12.5008 2 8.76471 2ZM4 8.76471C4 6.13323 6.13323 4 8.76471 4C11.3962 4 13.5294 6.13323 13.5294 8.76471C13.5294 11.3962 11.3962 13.5294 8.76471 13.5294C6.13323 13.5294 4 11.3962 4 8.76471Z" fill="black"/>
</svg>
