<svg width="20" height="20" viewBox="0 0 20 20" fill="none" xmlns="http://www.w3.org/2000/svg">
<path fill-rule="evenodd" clip-rule="evenodd" d="M2 8.76471C2 5.02866 5.02866 2 8.76471 2C12.5008 2 15.5294 5.02866 15.5294 8.76471C15.5294 12.5008 12.5008 15.5294 8.76471 15.5294C5.02866 15.5294 2 12.5008 2 8.76471ZM8.76471 4C6.13323 4 4 6.13323 4 8.76471C4 11.3962 6.13323 13.5294 8.76471 13.5294C11.3962 13.5294 13.5294 11.3962 13.5294 8.76471C13.5294 6.13323 11.3962 4 8.76471 4Z" fill="#A9A9A9"/>
<path fill-rule="evenodd" clip-rule="evenodd" d="M12.1753 12.1753C12.5658 11.7847 13.199 11.7847 13.5895 12.1753L17.7071 16.2929C18.0977 16.6834 18.0977 17.3166 17.7071 17.7071C17.3166 18.0976 16.6835 18.0976 16.2929 17.7071L12.1753 13.5895C11.7848 13.199 11.7848 12.5658 12.1753 12.1753Z" fill="#A9A9A9"/>
</svg>
