<svg width="32" height="32" viewBox="0 0 32 32" fill="none" xmlns="http://www.w3.org/2000/svg">
<path fill-rule="evenodd" clip-rule="evenodd" d="M2 16C2 23.732 8.26801 30 16 30C23.732 30 30 23.732 30 16C30 8.26801 23.732 2 16 2C8.26801 2 2 8.26801 2 16ZM16 0C7.16344 0 0 7.16344 0 16C0 24.8366 7.16344 32 16 32C24.8366 32 32 24.8366 32 16C32 7.16344 24.8366 0 16 0Z" fill="#F2F2F2"/>
<path d="M15.5957 18.3613C16.1934 18.3613 16.4922 18.001 16.5801 17.4209C16.6504 16.6211 16.9316 16.1992 18.083 15.5312C19.2783 14.8193 19.9463 13.8965 19.9463 12.5518C19.9463 10.5654 18.3115 9.21191 15.9297 9.21191C14.1191 9.21191 12.748 9.9502 12.2031 11.1455C12.0361 11.4795 11.957 11.8047 11.957 12.1826C11.957 12.7715 12.3174 13.1406 12.9238 13.1406C13.4072 13.1406 13.7324 12.9209 13.9258 12.376C14.207 11.4883 14.8574 11.0049 15.833 11.0049C16.9141 11.0049 17.6611 11.6729 17.6611 12.6309C17.6611 13.4746 17.292 13.958 16.2021 14.6172C15.1035 15.2676 14.5586 15.9883 14.5586 17.0781V17.2451C14.5586 17.8867 14.9277 18.3613 15.5957 18.3613ZM15.6133 22.1758C16.3252 22.1758 16.8877 21.6221 16.8877 20.9277C16.8877 20.2334 16.3252 19.6885 15.6133 19.6885C14.9014 19.6885 14.3301 20.2334 14.3301 20.9277C14.3301 21.6221 14.9014 22.1758 15.6133 22.1758Z" fill="#A9A9A9"/>
</svg>
