<svg width="32" height="32" viewBox="0 0 32 32" fill="none" xmlns="http://www.w3.org/2000/svg">
<path fill-rule="evenodd" clip-rule="evenodd" d="M2 16C2 23.732 8.26801 30 16 30C23.732 30 30 23.732 30 16C30 8.26801 23.732 2 16 2C8.26801 2 2 8.26801 2 16ZM16 0C7.16344 0 0 7.16344 0 16C0 24.8366 7.16344 32 16 32C24.8366 32 32 24.8366 32 16C32 7.16344 24.8366 0 16 0Z" fill="#F2F2F2"/>
<path fill-rule="evenodd" clip-rule="evenodd" d="M21.5952 10.1964C22.039 10.5252 22.1323 11.1514 21.8036 11.5952L15.1369 20.5952C14.9483 20.8498 14.6502 21 14.3333 21C14.0165 21 13.7184 20.8498 13.5298 20.5952L10.1964 16.0952C9.86771 15.6514 9.96098 15.0252 10.4048 14.6964C10.8486 14.3677 11.4748 14.461 11.8036 14.9048L14.3333 18.32L20.1964 10.4048C20.5252 9.96098 21.1514 9.86771 21.5952 10.1964Z" fill="#A9A9A9"/>
</svg>
