<svg width="32" height="32" viewBox="0 0 32 32" fill="none" xmlns="http://www.w3.org/2000/svg">
<rect y="6.10352e-05" width="32" height="32" rx="16" fill="#A6A6A6"/>
<path d="M10.1219 11.0196H11.5643L11.6941 11.211L9.15801 16.8028V20.8633L9.02129 21.0001H7.68828L7.55156 20.8633V16.7755L5.01543 11.211L5.13848 11.0196H6.59453L6.72441 11.088L8.34453 14.6973L9.99883 11.088L10.1219 11.0196ZM18.666 19.4073L18.8164 19.544V20.8633L18.666 21.0001H13.1221L12.9785 20.8633V19.6807L14.5098 16.8028H13.7236L13.5801 16.6592V15.3741L13.7236 15.2169H15.3301L16.7041 12.6124H13.3203L13.1631 12.4756V11.1563L13.3203 11.0196H18.4678L18.6113 11.1563V12.2911L17.0664 15.2169H17.8936L18.0371 15.3741V16.6592L17.8936 16.8028H16.2598L14.8994 19.4073H18.666ZM25.4055 11.0196H26.8479L26.9777 11.211L24.4416 16.8028V20.8633L24.3049 21.0001H22.9719L22.8352 20.8633V16.7755L20.299 11.211L20.4221 11.0196H21.8781L22.008 11.088L23.6281 14.6973L25.2824 11.088L25.4055 11.0196Z" fill="white"/>
</svg>
